<svg width="22" height="21" viewBox="0 0 22 21" fill="none" xmlns="http://www.w3.org/2000/svg">
<path d="M7.27485 16.9092C7.27485 16.996 7.17399 17.0655 7.04682 17.0655C6.90212 17.0785 6.80126 17.009 6.80126 16.9092C6.80126 16.8223 6.90212 16.7528 7.02928 16.7528C7.16084 16.7398 7.27485 16.8093 7.27485 16.9092ZM5.91109 16.7138C5.88039 16.8006 5.9681 16.9005 6.09965 16.9265C6.21366 16.97 6.34521 16.9265 6.37152 16.8397C6.39783 16.7528 6.31452 16.653 6.18296 16.6139C6.06895 16.5835 5.94178 16.6269 5.91109 16.7138ZM7.84929 16.6399C7.72213 16.6703 7.63442 16.7528 7.64758 16.8527C7.66074 16.9396 7.77475 16.996 7.9063 16.9656C8.03347 16.9352 8.12117 16.8527 8.10801 16.7659C8.09486 16.6834 7.97646 16.6269 7.84929 16.6399ZM10.7347 0C4.65257 0 0 4.57251 0 10.5954C0 15.4111 3.06079 19.532 7.43271 20.9823C7.994 21.0822 8.19133 20.7391 8.19133 20.4569C8.19133 20.1877 8.17817 18.7026 8.17817 17.7907C8.17817 17.7907 5.10862 18.442 4.46401 16.4966C4.46401 16.4966 3.96411 15.233 3.24496 14.9073C3.24496 14.9073 2.24078 14.2256 3.31512 14.2386C3.31512 14.2386 4.40701 14.3255 5.00776 15.3589C5.96809 17.0351 7.57742 16.5531 8.20449 16.2665C8.30534 15.5717 8.59037 15.0897 8.9061 14.8031C6.45484 14.5339 3.98165 14.1822 3.98165 10.0048C3.98165 8.81066 4.31492 8.21141 5.01653 7.44716C4.90252 7.1649 4.52979 6.00115 5.13054 4.49869C6.04703 4.21644 8.15625 5.67113 8.15625 5.67113C9.03327 5.42796 9.97606 5.30203 10.9101 5.30203C11.8441 5.30203 12.7869 5.42796 13.6639 5.67113C13.6639 5.67113 15.7731 4.21209 16.6896 4.49869C17.2904 6.00549 16.9176 7.1649 16.8036 7.44716C17.5052 8.21575 17.935 8.815 17.935 10.0048C17.935 14.1952 15.3522 14.5296 12.9009 14.8031C13.3043 15.1462 13.6464 15.7975 13.6464 16.818C13.6464 18.2814 13.6332 20.0921 13.6332 20.4482C13.6332 20.7304 13.8349 21.0735 14.3918 20.9736C18.7769 19.532 21.75 15.4111 21.75 10.5954C21.75 4.57251 16.8168 0 10.7347 0ZM4.2623 14.9768C4.20529 15.0202 4.21845 15.1201 4.29299 15.2026C4.36316 15.2721 4.46401 15.3025 4.52102 15.246C4.57802 15.2026 4.56487 15.1027 4.49032 15.0202C4.42016 14.9508 4.3193 14.9204 4.2623 14.9768ZM3.78871 14.6251C3.75801 14.6815 3.80186 14.751 3.88957 14.7944C3.95973 14.8379 4.04743 14.8248 4.07812 14.764C4.10882 14.7076 4.06497 14.6381 3.97727 14.5947C3.88957 14.5686 3.81941 14.5817 3.78871 14.6251ZM5.20948 16.171C5.13931 16.2274 5.16563 16.3577 5.26648 16.4402C5.36734 16.5401 5.49451 16.5531 5.55151 16.4836C5.60852 16.4272 5.58221 16.2969 5.49451 16.2144C5.39803 16.1145 5.26648 16.1015 5.20948 16.171ZM4.70958 15.5326C4.63942 15.5761 4.63942 15.689 4.70958 15.7888C4.77974 15.8887 4.89814 15.9321 4.95514 15.8887C5.0253 15.8323 5.0253 15.7194 4.95514 15.6195C4.89375 15.5196 4.77974 15.4762 4.70958 15.5326Z" fill="#E6E6E6"/>
</svg>
