<svg width="79" height="31" viewBox="0 0 79 31" fill="none" xmlns="http://www.w3.org/2000/svg">
<path d="M3.74184 23.3232L20 3.66443L36.2582 23.3232H3.74184Z" fill="#D7D4D4" fill-opacity="0.2" stroke="#2B4D80"/>
<path d="M32.8848 1.15625L29.9316 9.17773H29.1816L32.4043 0.646484H32.9258L32.8848 1.15625ZM35.5684 9.17773L32.6094 1.15625L32.5684 0.646484H33.0898L36.3184 9.17773H35.5684ZM35.041 6.16602V6.78711H30.5117V6.16602H35.041ZM38.1172 4.19141V9.17773H37.4199V2.83789H38.0879L38.1172 4.19141ZM37.959 5.61523L37.6484 5.43945C37.6719 5.06445 37.748 4.71289 37.877 4.38477C38.0059 4.05664 38.1797 3.76758 38.3984 3.51758C38.6211 3.26758 38.8809 3.07227 39.1777 2.93164C39.4785 2.79102 39.8105 2.7207 40.1738 2.7207C40.4902 2.7207 40.7734 2.76367 41.0234 2.84961C41.2734 2.93555 41.4863 3.07227 41.6621 3.25977C41.8379 3.44727 41.9707 3.6875 42.0605 3.98047C42.1543 4.27344 42.2012 4.63086 42.2012 5.05273V9.17773H41.498V5.04688C41.498 4.60938 41.4375 4.26758 41.3164 4.02148C41.1953 3.77148 41.0234 3.59375 40.8008 3.48828C40.5781 3.38281 40.3145 3.33008 40.0098 3.33008C39.6738 3.33008 39.3789 3.4043 39.125 3.55273C38.875 3.69727 38.6641 3.88672 38.4922 4.12109C38.3242 4.35156 38.1953 4.59961 38.1055 4.86523C38.0156 5.12695 37.9668 5.37695 37.959 5.61523ZM48.1367 7.94727V0.177734H48.8398V9.17773H48.1836L48.1367 7.94727ZM43.7363 6.07227V5.94922C43.7363 5.45703 43.793 5.01367 43.9062 4.61914C44.0195 4.2207 44.1816 3.88086 44.3926 3.59961C44.6074 3.31445 44.8652 3.09766 45.166 2.94922C45.4668 2.79688 45.8066 2.7207 46.1855 2.7207C46.5566 2.7207 46.8848 2.78125 47.1699 2.90234C47.4551 3.02344 47.6992 3.19727 47.9023 3.42383C48.1094 3.65039 48.2754 3.91992 48.4004 4.23242C48.5293 4.54492 48.623 4.89258 48.6816 5.27539V6.83984C48.6348 7.19922 48.5488 7.5293 48.4238 7.83008C48.2988 8.12695 48.1328 8.38672 47.9258 8.60938C47.7188 8.82812 47.4688 8.99805 47.1758 9.11914C46.8867 9.23633 46.5527 9.29492 46.1738 9.29492C45.7988 9.29492 45.4609 9.2168 45.1602 9.06055C44.8594 8.9043 44.6035 8.68359 44.3926 8.39844C44.1816 8.10938 44.0195 7.76758 43.9062 7.37305C43.793 6.97852 43.7363 6.54492 43.7363 6.07227ZM44.4395 5.94922V6.07227C44.4395 6.44336 44.4766 6.78711 44.5508 7.10352C44.625 7.41992 44.7383 7.69531 44.8906 7.92969C45.043 8.16406 45.2363 8.34766 45.4707 8.48047C45.7051 8.61328 45.9824 8.67969 46.3027 8.67969C46.7051 8.67969 47.043 8.60352 47.3164 8.45117C47.5898 8.29492 47.8086 8.08984 47.9727 7.83594C48.1367 7.57812 48.2559 7.29688 48.3301 6.99219V5.16992C48.2832 4.96289 48.2148 4.75195 48.125 4.53711C48.0352 4.32227 47.9121 4.125 47.7559 3.94531C47.6035 3.76172 47.4082 3.61523 47.1699 3.50586C46.9355 3.39258 46.6504 3.33594 46.3145 3.33594C45.9902 3.33594 45.7109 3.40234 45.4766 3.53516C45.2422 3.66797 45.0469 3.85352 44.8906 4.0918C44.7383 4.32617 44.625 4.60156 44.5508 4.91797C44.4766 5.23438 44.4395 5.57812 44.4395 5.94922ZM51.3828 3.88672V9.17773H50.6855V2.83789H51.3652L51.3828 3.88672ZM53.627 2.79102L53.6094 3.43555C53.5312 3.42383 53.4551 3.41406 53.3809 3.40625C53.3066 3.39844 53.2266 3.39453 53.1406 3.39453C52.8359 3.39453 52.5684 3.45117 52.3379 3.56445C52.1113 3.67383 51.9199 3.82812 51.7637 4.02734C51.6074 4.22266 51.4883 4.45312 51.4062 4.71875C51.3242 4.98047 51.2773 5.26172 51.2656 5.5625L51.0078 5.66211C51.0078 5.24805 51.0508 4.86328 51.1367 4.50781C51.2227 4.15234 51.3535 3.8418 51.5293 3.57617C51.709 3.30664 51.9336 3.09766 52.2031 2.94922C52.4766 2.79688 52.7969 2.7207 53.1641 2.7207C53.2539 2.7207 53.3418 2.72852 53.4277 2.74414C53.5176 2.75586 53.584 2.77148 53.627 2.79102ZM57.0605 9.29492C56.6465 9.29492 56.2656 9.21875 55.918 9.06641C55.5742 8.91406 55.2734 8.69922 55.0156 8.42188C54.7617 8.14453 54.5645 7.81641 54.4238 7.4375C54.2871 7.05469 54.2188 6.63672 54.2188 6.18359V5.93164C54.2188 5.44336 54.291 5.00195 54.4355 4.60742C54.5801 4.21289 54.7793 3.875 55.0332 3.59375C55.2871 3.3125 55.5762 3.09766 55.9004 2.94922C56.2285 2.79688 56.5723 2.7207 56.9316 2.7207C57.334 2.7207 57.6914 2.79297 58.0039 2.9375C58.3164 3.07812 58.5781 3.2793 58.7891 3.54102C59.0039 3.79883 59.166 4.10547 59.2754 4.46094C59.3848 4.8125 59.4395 5.20117 59.4395 5.62695V6.05469H54.6406V5.45703H58.7422V5.375C58.7344 5.01953 58.6621 4.6875 58.5254 4.37891C58.3926 4.06641 58.1934 3.8125 57.9277 3.61719C57.6621 3.42188 57.3301 3.32422 56.9316 3.32422C56.6348 3.32422 56.3613 3.38672 56.1113 3.51172C55.8652 3.63672 55.6523 3.81641 55.4727 4.05078C55.2969 4.28125 55.1602 4.55664 55.0625 4.87695C54.9688 5.19336 54.9219 5.54492 54.9219 5.93164V6.18359C54.9219 6.53516 54.9727 6.86328 55.0742 7.16797C55.1797 7.46875 55.3281 7.73438 55.5195 7.96484C55.7148 8.19531 55.9453 8.375 56.2109 8.50391C56.4766 8.63281 56.7695 8.69727 57.0898 8.69727C57.4648 8.69727 57.7969 8.62891 58.0859 8.49219C58.375 8.35156 58.6348 8.13086 58.8652 7.83008L59.3047 8.16992C59.168 8.37305 58.9961 8.56055 58.7891 8.73242C58.5859 8.9043 58.3418 9.04102 58.0566 9.14258C57.7715 9.24414 57.4395 9.29492 57.0605 9.29492ZM56.5977 1.82422L57.7168 0.183594H58.5605L57.207 1.82422H56.5977Z" fill="#163F7C"/>
<path d="M40.416 20.0547H38.4824L38.4941 19.4395H40.416C41.0293 19.4395 41.5566 19.3027 41.998 19.0293C42.4434 18.752 42.7871 18.3691 43.0293 17.8809C43.2715 17.3926 43.3926 16.8262 43.3926 16.1816V15.3848C43.3926 14.8926 43.3223 14.4473 43.1816 14.0488C43.0449 13.6504 42.8477 13.3105 42.5898 13.0293C42.332 12.7441 42.0234 12.5254 41.6641 12.373C41.3086 12.2207 40.9102 12.1445 40.4688 12.1445H38.4473V11.5234H40.4688C41 11.5234 41.4863 11.6152 41.9277 11.7988C42.373 11.9785 42.7578 12.2402 43.082 12.584C43.4102 12.9238 43.6621 13.332 43.8379 13.8086C44.0176 14.2852 44.1074 14.8164 44.1074 15.4023V16.1816C44.1074 16.7676 44.0176 17.2988 43.8379 17.7754C43.6621 18.252 43.4102 18.6602 43.082 19C42.7539 19.3398 42.3652 19.6016 41.916 19.7852C41.4668 19.9648 40.9668 20.0547 40.416 20.0547ZM38.8047 11.5234V20.0547H38.084V11.5234H38.8047ZM48.2324 20.1719C47.8184 20.1719 47.4375 20.0957 47.0898 19.9434C46.7461 19.791 46.4453 19.5762 46.1875 19.2988C45.9336 19.0215 45.7363 18.6934 45.5957 18.3145C45.459 17.9316 45.3906 17.5137 45.3906 17.0605V16.8086C45.3906 16.3203 45.4629 15.8789 45.6074 15.4844C45.752 15.0898 45.9512 14.752 46.2051 14.4707C46.459 14.1895 46.748 13.9746 47.0723 13.8262C47.4004 13.6738 47.7441 13.5977 48.1035 13.5977C48.5059 13.5977 48.8633 13.6699 49.1758 13.8145C49.4883 13.9551 49.75 14.1562 49.9609 14.418C50.1758 14.6758 50.3379 14.9824 50.4473 15.3379C50.5566 15.6895 50.6113 16.0781 50.6113 16.5039V16.9316H45.8125V16.334H49.9141V16.252C49.9062 15.8965 49.834 15.5645 49.6973 15.2559C49.5645 14.9434 49.3652 14.6895 49.0996 14.4941C48.834 14.2988 48.502 14.2012 48.1035 14.2012C47.8066 14.2012 47.5332 14.2637 47.2832 14.3887C47.0371 14.5137 46.8242 14.6934 46.6445 14.9277C46.4688 15.1582 46.332 15.4336 46.2344 15.7539C46.1406 16.0703 46.0938 16.4219 46.0938 16.8086V17.0605C46.0938 17.4121 46.1445 17.7402 46.2461 18.0449C46.3516 18.3457 46.5 18.6113 46.6914 18.8418C46.8867 19.0723 47.1172 19.252 47.3828 19.3809C47.6484 19.5098 47.9414 19.5742 48.2617 19.5742C48.6367 19.5742 48.9688 19.5059 49.2578 19.3691C49.5469 19.2285 49.8066 19.0078 50.0371 18.707L50.4766 19.0469C50.3398 19.25 50.168 19.4375 49.9609 19.6094C49.7578 19.7812 49.5137 19.918 49.2285 20.0195C48.9434 20.1211 48.6113 20.1719 48.2324 20.1719ZM53.7812 19.3809L55.8145 13.7148H56.5352L54.1621 20.0547H53.6523L53.7812 19.3809ZM51.9414 13.7148L53.998 19.3984L54.1094 20.0547H53.5938L51.2148 13.7148H51.9414ZM60.0566 20.1719C59.6426 20.1719 59.2617 20.0957 58.9141 19.9434C58.5703 19.791 58.2695 19.5762 58.0117 19.2988C57.7578 19.0215 57.5605 18.6934 57.4199 18.3145C57.2832 17.9316 57.2148 17.5137 57.2148 17.0605V16.8086C57.2148 16.3203 57.2871 15.8789 57.4316 15.4844C57.5762 15.0898 57.7754 14.752 58.0293 14.4707C58.2832 14.1895 58.5723 13.9746 58.8965 13.8262C59.2246 13.6738 59.5684 13.5977 59.9277 13.5977C60.3301 13.5977 60.6875 13.6699 61 13.8145C61.3125 13.9551 61.5742 14.1562 61.7852 14.418C62 14.6758 62.1621 14.9824 62.2715 15.3379C62.3809 15.6895 62.4355 16.0781 62.4355 16.5039V16.9316H57.6367V16.334H61.7383V16.252C61.7305 15.8965 61.6582 15.5645 61.5215 15.2559C61.3887 14.9434 61.1895 14.6895 60.9238 14.4941C60.6582 14.2988 60.3262 14.2012 59.9277 14.2012C59.6309 14.2012 59.3574 14.2637 59.1074 14.3887C58.8613 14.5137 58.6484 14.6934 58.4688 14.9277C58.293 15.1582 58.1562 15.4336 58.0586 15.7539C57.9648 16.0703 57.918 16.4219 57.918 16.8086V17.0605C57.918 17.4121 57.9688 17.7402 58.0703 18.0449C58.1758 18.3457 58.3242 18.6113 58.5156 18.8418C58.7109 19.0723 58.9414 19.252 59.207 19.3809C59.4727 19.5098 59.7656 19.5742 60.0859 19.5742C60.4609 19.5742 60.793 19.5059 61.082 19.3691C61.3711 19.2285 61.6309 19.0078 61.8613 18.707L62.3008 19.0469C62.1641 19.25 61.9922 19.4375 61.7852 19.6094C61.582 19.7812 61.3379 19.918 61.0527 20.0195C60.7676 20.1211 60.4355 20.1719 60.0566 20.1719ZM64.5977 11.0547V20.0547H63.9004V11.0547H64.5977ZM66.127 16.9844V16.791C66.127 16.3301 66.1934 15.9043 66.3262 15.5137C66.459 15.123 66.6484 14.7852 66.8945 14.5C67.1445 14.2148 67.4434 13.9941 67.791 13.8379C68.1387 13.6777 68.5254 13.5977 68.9512 13.5977C69.3809 13.5977 69.7695 13.6777 70.1172 13.8379C70.4648 13.9941 70.7637 14.2148 71.0137 14.5C71.2637 14.7852 71.4551 15.123 71.5879 15.5137C71.7207 15.9043 71.7871 16.3301 71.7871 16.791V16.9844C71.7871 17.4453 71.7207 17.8711 71.5879 18.2617C71.4551 18.6484 71.2637 18.9844 71.0137 19.2695C70.7676 19.5547 70.4707 19.7773 70.123 19.9375C69.7754 20.0938 69.3887 20.1719 68.9629 20.1719C68.5332 20.1719 68.1445 20.0938 67.7969 19.9375C67.4492 19.7773 67.1504 19.5547 66.9004 19.2695C66.6504 18.9844 66.459 18.6484 66.3262 18.2617C66.1934 17.8711 66.127 17.4453 66.127 16.9844ZM66.8242 16.791V16.9844C66.8242 17.332 66.8711 17.6621 66.9648 17.9746C67.0586 18.2832 67.1953 18.5586 67.375 18.8008C67.5547 19.0391 67.7773 19.2266 68.043 19.3633C68.3086 19.5 68.6152 19.5684 68.9629 19.5684C69.3066 19.5684 69.6094 19.5 69.8711 19.3633C70.1367 19.2266 70.3594 19.0391 70.5391 18.8008C70.7188 18.5586 70.8535 18.2832 70.9434 17.9746C71.0371 17.6621 71.084 17.332 71.084 16.9844V16.791C71.084 16.4473 71.0371 16.1211 70.9434 15.8125C70.8535 15.5039 70.7168 15.2285 70.5332 14.9863C70.3535 14.7441 70.1309 14.5527 69.8652 14.4121C69.5996 14.2715 69.2949 14.2012 68.9512 14.2012C68.6074 14.2012 68.3027 14.2715 68.0371 14.4121C67.7754 14.5527 67.5527 14.7441 67.3691 14.9863C67.1895 15.2285 67.0527 15.5039 66.959 15.8125C66.8691 16.1211 66.8242 16.4473 66.8242 16.791ZM73.9316 14.9336V22.4922H73.2285V13.7148H73.8848L73.9316 14.9336ZM78.3379 16.8262V16.9492C78.3379 17.4219 78.2832 17.8555 78.1738 18.25C78.0645 18.6445 77.9062 18.9863 77.6992 19.2754C77.4961 19.5605 77.2441 19.7812 76.9434 19.9375C76.6426 20.0938 76.3008 20.1719 75.918 20.1719C75.5391 20.1719 75.2012 20.1133 74.9043 19.9961C74.6074 19.8789 74.3516 19.7129 74.1367 19.498C73.9258 19.2793 73.7559 19.0254 73.627 18.7363C73.502 18.4434 73.4141 18.123 73.3633 17.7754V16.1523C73.4219 15.7695 73.5176 15.4219 73.6504 15.1094C73.7832 14.7969 73.9531 14.5273 74.1602 14.3008C74.3711 14.0742 74.6211 13.9004 74.9102 13.7793C75.1992 13.6582 75.5293 13.5977 75.9004 13.5977C76.2871 13.5977 76.6309 13.6738 76.9316 13.8262C77.2363 13.9746 77.4922 14.1914 77.6992 14.4766C77.9102 14.7578 78.0684 15.0977 78.1738 15.4961C78.2832 15.8906 78.3379 16.334 78.3379 16.8262ZM77.6348 16.9492V16.8262C77.6348 16.4551 77.5957 16.1113 77.5176 15.7949C77.4434 15.4785 77.3281 15.2031 77.1719 14.9688C77.0195 14.7305 76.8242 14.5449 76.5859 14.4121C76.3516 14.2793 76.0723 14.2129 75.748 14.2129C75.4121 14.2129 75.125 14.2695 74.8867 14.3828C74.6523 14.4922 74.457 14.6387 74.3008 14.8223C74.1445 15.002 74.0215 15.1992 73.9316 15.4141C73.8418 15.6289 73.7754 15.8398 73.7324 16.0469V17.916C73.8066 18.2129 73.9258 18.4883 74.0898 18.7422C74.2539 18.9922 74.4727 19.1934 74.7461 19.3457C75.0234 19.4941 75.3613 19.5684 75.7598 19.5684C76.0801 19.5684 76.3574 19.502 76.5918 19.3691C76.8262 19.2363 77.0195 19.0508 77.1719 18.8125C77.3281 18.5742 77.4434 18.2969 77.5176 17.9805C77.5957 17.6641 77.6348 17.3203 77.6348 16.9492Z" fill="#163F7C"/>
<path d="M37 23.4741H79" stroke="#2B4D80"/>
</svg>
